Speed Racer [BDRip-720p-Mkv-Ita-Ac3-Sub-Ita][TNTVillage.Scambioetico]





General
Complete name                    : C:\Speed Racer [BDRip720p by Pitt@Sk8].mkv
Format                           : Matroska
File size                        : 4.37 GiB
Duration                         : 2h 15mn
Overall bit rate                 : 4 637 Kbps
Encoded date                     : UTC 2010-10-13 16:45:28
Writing application              : mkvmerge v4.1.1 ('Bouncin' Back') built on Jul  3 2010 22:54:08
Writing library                  : libebml v1.0.0 + libmatroska v1.0.0

Video
ID                               : 1
Format                           : AVC
Format/Info                      : Advanced Video Codec
Format profile                   : High@L4.1
Format settings, CABAC           : Yes
Format settings, ReFrames        : 3 frames
Muxing mode                      : Container profile=Unknown@4.1
Codec ID                         : V_MPEG4/ISO/AVC
Duration                         : 2h 15mn
Bit rate                         : 4 187 Kbps
Width                            : 1 280 pixels
Height                           : 548 pixels
Display aspect ratio             : 16:9
Frame rate                       : 23.976 fps
Color space                      : YUV
Chroma subsampling               : 4:2:0
Bit depth                        : 8 bits
Scan type                        : Progressive
Bits/(Pixel*Frame)               : 0.249
Stream size                      : 3.86 GiB (88%)
Title                            : BDRip720p by Pitt@Sk8
Writing library                  : x264 core 104 r1713 c276662
Encoding settings                : cabac=1 / ref=4 / deblock=1:0:0 / analyse=0x3:0x133 / me=hex / subme=7 / psy=1 / psy_rd=1.00:0.00 / mixed_ref=1 / me_range=16 / chroma_me=1 / trellis=1 / 8x8dct=1 / cqm=0 / deadzone=21,11 / fast_pskip=0 / chroma_qp_offset=-2 / threads=6 / sliced_threads=0 / slices=4 / nr=0 / decimate=0 / interlaced=0 / constrained_intra=0 / bframes=3 / b_pyramid=1 / b_adapt=1 / b_bias=0 / direct=3 / weightb=1 / open_gop=0 / weightp=0 / keyint=24 / keyint_min=2 / scenecut=40 / intra_refresh=0 / rc_lookahead=24 / rc=2pass / mbtree=1 / bitrate=4187 / ratetol=1.0 / qcomp=0.60 / qpmin=10 / qpmax=51 / qpstep=4 / cplxblur=20.0 / qblur=0.5 / vbv_maxrate=40000 / vbv_bufsize=30000 / ip_ratio=1.40 / aq=1:1.00 / nal_hrd=vbr
Language                         : Italian
Color primaries                  : BT.709-5, BT.1361, IEC 61966-2-4, SMPTE RP177
Transfer characteristics         : BT.709-5, BT.1361
Matrix coefficients              : BT.709-5, BT.1361, IEC 61966-2-4 709, SMPTE RP177

Audio
ID                               : 2
Format                           : AC-3
Format/Info                      : Audio Coding 3
Mode extension                   : CM (complete main)
Codec ID                         : A_AC3
Duration                         : 2h 15mn
Bit rate mode                    : Constant
Bit rate                         : 448 Kbps
Channel(s)                       : 6 channels
Channel positions                : Front: L C R, Side: L R, LFE
Sampling rate                    : 48.0 KHz
Bit depth                        : 16 bits
Stream size                      : 433 MiB (10%)
Title                            : Italiano AC3 5.1 448 kbps - Pitt@Sk8
Language                         : Italian

Text #1
ID                               : 3
Format                           : ASS
Codec ID                         : S_TEXT/ASS
Codec ID/Info                    : Advanced Sub Station Alpha
Title                            : Cartelli ASS - Italiano
Language                         : Italian

Text #2
ID                               : 4
Format                           : UTF-8
Codec ID                         : S_TEXT/UTF8
Codec ID/Info                    : UTF-8 Plain Text
Title                            : Cartelli SRT - Italiano
Language                         : Italian

Menu
00:00:00.000                     : en:Capitolo 01
00:04:24.181                     : en:Capitolo 02
00:09:14.888                     : en:Capitolo 03
00:15:25.258                     : en:Capitolo 04
00:18:20.182                     : en:Capitolo 05
00:23:12.016                     : en:Capitolo 06
00:28:04.516                     : en:Capitolo 07
00:32:17.269                     : en:Capitolo 08
00:36:18.593                     : en:Capitolo 09
00:39:51.222                     : en:Capitolo 10
00:44:40.803                     : en:Capitolo 11
00:48:55.099                     : en:Capitolo 12
00:52:42.576                     : en:Capitolo 13
00:57:22.356                     : en:Capitolo 14
01:01:10.333                     : en:Capitolo 15
01:04:32.118                     : en:Capitolo 16
01:10:35.648                     : en:Capitolo 17
01:14:38.516                     : en:Capitolo 18
01:18:18.110                     : en:Capitolo 19
01:22:58.223                     : en:Capitolo 20
01:26:39.236                     : en:Capitolo 21
01:30:15.744                     : en:Capitolo 22
01:33:39.531                     : en:Capitolo 23
01:39:09.861                     : en:Capitolo 24
01:45:10.930                     : en:Capitolo 25
01:51:08.495                     : en:Capitolo 26
01:55:01.937                     : en:Capitolo 27
01:59:13.980                     : en:Capitolo 28
02:03:36.743                     : en:Capitolo 29
02:05:16.551                     : en:Capitolo 30